<?xml version="1.0" encoding="UTF-8"?>
<svg xmlns="http://www.w3.org/2000/svg" xmlns:xlink="http://www.w3.org/1999/xlink" viewBox="0 0 48 48" width="48px" height="48px">
<g id="surface63577049">
<path style=" stroke:none;fill-rule:nonzero;fill:rgb(44.313726%,44.313726%,44.313726%);fill-opacity:1;" d="M 19.007812 10.9375 C 20.5625 10.339844 22.238281 10 24 10 C 31.71875 10 38 16.28125 38 24 C 38 25.761719 37.660156 27.441406 37.0625 28.992188 L 40.09375 32.019531 C 41.300781 29.601562 42 26.882812 42 24 C 42 14.074219 33.925781 6 24 6 C 21.519531 6 19.164062 6.515625 17.015625 7.429688 Z M 28.992188 37.0625 C 27.4375 37.660156 25.761719 38 24 38 C 16.28125 38 10 31.71875 10 24 C 10 22.238281 10.339844 20.558594 10.9375 19.007812 L 7.90625 15.980469 C 6.699219 18.398438 6 21.117188 6 24 C 6 33.925781 14.074219 42 24 42 C 26.550781 42 28.972656 41.453125 31.171875 40.488281 Z M 28.992188 37.0625 "/>
<path style=" stroke:none;fill-rule:nonzero;fill:rgb(44.313726%,44.313726%,44.313726%);fill-opacity:1;" d="M 32 40 L 24 48 L 24 32 Z M 16 8 L 24 0 L 24 16 Z M 16 8 "/>
</g>
</svg>
